HIERARCHY
ROOT Hips
{
	OFFSET 0.000000 0.000000 0.000000
	CHANNELS 6 Xposition Yposition Zposition Xrotation Yrotation Zrotation
	JOINT LeftUpLeg_virtual
	{
		OFFSET 0.000000 0.000000 0.000000
		CHANNELS 3 Xrotation Yrotation Zrotation
		JOINT LeftUpLeg
		{
			OFFSET 10.205400 -3.823500 0.155100
			CHANNELS 3 Xrotation Yrotation Zrotation
			JOINT LeftLeg
			{
				OFFSET 0.708757 -12.982077 0.567790
				CHANNELS 3 Xrotation Yrotation Zrotation
				JOINT LeftFoot
				{
					OFFSET -0.708756 -10.717838 -2.184338
					CHANNELS 3 Xrotation Yrotation Zrotation
					JOINT LeftToeBase
					{
						OFFSET 0.108149 -7.191104 7.560241
						CHANNELS 3 Xrotation Yrotation Zrotation
						JOINT LeftToe_End
						{
							OFFSET 0.070230 0.081724 4.490308
							CHANNELS 3 Xrotation Yrotation Zrotation
							End Site
							{
								OFFSET 0 0 0
							}
						}
					}
				}
			}
		}
	}
	JOINT RightUpLeg_virtual
	{
		OFFSET 0.000000 0.000000 0.000000
		CHANNELS 3 Xrotation Yrotation Zrotation
		JOINT RightUpLeg
		{
			OFFSET -10.205400 -3.823500 0.005500
			CHANNELS 3 Xrotation Yrotation Zrotation
			JOINT RightLeg
			{
				OFFSET -0.708756 -12.982134 0.610632
				CHANNELS 3 Xrotation Yrotation Zrotation
				JOINT RightFoot
				{
					OFFSET 0.708754 -10.717769 -1.945823
					CHANNELS 3 Xrotation Yrotation Zrotation
					JOINT RightToeBase
					{
						OFFSET -0.108140 -7.191069 7.372968
						CHANNELS 3 Xrotation Yrotation Zrotation
						JOINT RightToe_End
						{
							OFFSET -0.070227 0.081735 4.479403
							CHANNELS 3 Xrotation Yrotation Zrotation
							End Site
							{
								OFFSET 0 0 0
							}
						}
					}
				}
			}
		}
	}
	JOINT Spine_virtual
	{
		OFFSET 0.000000 0.000000 0.000000
		CHANNELS 3 Xrotation Yrotation Zrotation
		JOINT Spine
		{
			OFFSET 0.000000 6.876099 0.125700
			CHANNELS 3 Xrotation Yrotation Zrotation
			JOINT Spine1
			{
				OFFSET 0.000000 5.730043 0.104720
				CHANNELS 3 Xrotation Yrotation Zrotation
				JOINT Spine1_split
				{
					OFFSET 0.000000 5.730043 0.104720
					CHANNELS 3 Xrotation Yrotation Zrotation
					JOINT Spine2
					{
						OFFSET 0.000000 5.730043 0.104720
						CHANNELS 3 Xrotation Yrotation Zrotation
						JOINT Neck_virtual
						{
							OFFSET 0.000000 0.000000 0.000000
							CHANNELS 3 Xrotation Yrotation Zrotation
							JOINT Neck
							{
								OFFSET 0.000000 10.314075 0.188496
								CHANNELS 3 Xrotation Yrotation Zrotation
								JOINT Head
								{
									OFFSET 0.000000 7.643700 -2.377400
									CHANNELS 3 Xrotation Yrotation Zrotation
									JOINT HeadTop_End
									{
										OFFSET 0.000000 43.788605 -13.619600
										CHANNELS 3 Xrotation Yrotation Zrotation
										End Site
										{
											OFFSET 0 0 0
										}
									}
								}
							}
						}
						JOINT LeftShoulder_virtual
						{
							OFFSET 0.000000 0.000000 0.000000
							CHANNELS 3 Xrotation Yrotation Zrotation
							JOINT LeftShoulder
							{
								OFFSET 2.196100 4.412489 0.087492
								CHANNELS 3 Xrotation Yrotation Zrotation
								JOINT LeftShoulder_split
								{
									OFFSET 2.196100 4.412489 0.087492
									CHANNELS 3 Xrotation Yrotation Zrotation
									JOINT LeftArm
									{
										OFFSET 8.771219 -2.981674 -0.026999
										CHANNELS 3 Xrotation Yrotation Zrotation
										JOINT LeftForeArm
										{
											OFFSET 8.512804 0.000000 -0.000000
											CHANNELS 3 Xrotation Yrotation Zrotation
											JOINT LeftHand
											{
												OFFSET 18.484802 0.000000 -0.000000
												CHANNELS 3 Xrotation Yrotation Zrotation
												End Site
												{
													OFFSET 0 0 0
												}
											}
										}
									}
								}
							}
						}
						JOINT RightShoulder_virtual
						{
							OFFSET 0.000000 0.000000 0.000000
							CHANNELS 3 Xrotation Yrotation Zrotation
							JOINT RightShoulder
							{
								OFFSET -2.196100 4.412496 0.070690
								CHANNELS 3 Xrotation Yrotation Zrotation
								JOINT RightShoulder_split
								{
									OFFSET -2.196100 4.412496 0.070690
									CHANNELS 3 Xrotation Yrotation Zrotation
									JOINT RightArm
									{
										OFFSET -8.771282 -2.981682 -0.094208
										CHANNELS 3 Xrotation Yrotation Zrotation
										JOINT RightForeArm
										{
											OFFSET -8.494598 0.000000 0.000000
											CHANNELS 3 Xrotation Yrotation Zrotation
											JOINT RightHand
											{
												OFFSET -18.483803 0.000000 0.000001
												CHANNELS 3 Xrotation Yrotation Zrotation
												End Site
												{
													OFFSET 0 0 0
												}
											}
										}
									}
								}
							}
						}
					}
				}
			}
		}
	}
}
MOTION
Frames: 5
Frame Time: 0.03333333
1.155430 26.455097 2.693928 0.000000 0.000000 0.000000 1.976967 -19.011128 -0.618982 -48.841566 -2.562938 22.622211 68.577176 -2.765674 1.307869 -14.618746 5.528908 -19.472649 -0.952908 -1.529971 0.175153 0.000000 0.000000 0.000000 1.125024 -18.259992 -0.900854 -7.032442 -25.442274 -29.893802 47.973729 19.332241 -8.334972 -24.849377 -38.730588 37.812139 1.791739 21.055955 -23.445208 0.000000 0.000000 0.000000 2.501939 -14.293414 -1.351126 10.792232 11.402460 -5.693101 0.342253 -1.466790 -0.450790 0.188020 -0.169688 0.005042 0.000000 0.000000 0.000000 6.511851 0.288828 0.691882 -4.255421 11.754910 5.291237 -18.236385 20.229214 -14.395865 0.000000 0.000000 0.000000 3.107701 -1.333614 -0.270979 0.375627 2.291363 0.352222 6.174828 -6.634961 3.365475 -67.807707 7.458187 -46.421620 -177.335302 -84.274842 178.550775 0.000000 0.000000 0.000000 3.062461 -2.168343 0.675839 0.371303 14.264753 -11.037550 -7.748202 -1.738319 -0.512071 -35.929568 14.990956 60.244775 -161.725793 72.400360 156.436754 0.000000 0.000000 0.000000 
1.157118 26.320812 1.983234 0.000000 0.000000 0.000000 1.150889 -22.662288 -0.412582 -47.874534 -1.022680 24.705517 68.070806 -2.620069 1.256650 -13.727079 6.278616 -20.474279 -1.337659 -1.747273 0.206773 0.000000 0.000000 0.000000 0.058437 -21.712502 -0.717249 -7.889023 -25.229628 -30.460257 49.117267 17.527252 -8.197253 -27.612973 -40.207623 39.343392 5.132800 20.249829 -24.834534 0.000000 0.000000 0.000000 1.407272 -17.921250 -1.048597 10.671953 10.639595 -5.365574 0.742605 -1.628990 -0.499666 0.195222 -0.066394 0.042377 0.000000 0.000000 0.000000 6.473469 0.185614 0.630655 -4.707636 12.520316 4.242523 -17.804690 18.320162 -15.042375 0.000000 0.000000 0.000000 3.384435 -1.476888 -0.215801 0.278828 2.640118 0.080598 6.384047 -6.240556 3.713195 -69.302945 8.222469 -45.978907 167.509583 -85.000290 162.540744 0.000000 0.000000 0.000000 3.211794 -2.332016 0.663566 -0.070862 14.835914 -10.265621 -6.582953 -1.195860 -0.787901 -37.669487 14.872298 62.633087 -161.198871 72.251572 156.051955 0.000000 0.000000 0.000000 
1.110072 26.229195 1.275459 0.000000 0.000000 0.000000 0.568539 -25.470807 0.039539 -47.532270 0.401813 26.626656 66.994682 -2.684115 1.038259 -12.017580 6.081460 -21.573202 -1.750194 -1.954435 0.445143 0.000000 0.000000 0.000000 -0.617159 -24.638617 -0.202268 -8.533801 -24.558241 -31.003356 50.300071 16.381258 -8.183810 -29.706733 -40.941407 41.210131 6.997109 19.569416 -25.446971 0.000000 0.000000 0.000000 0.569132 -20.779027 -0.525573 10.344110 9.739111 -5.062751 1.084900 -1.736878 -0.561198 0.180783 -0.023043 0.068612 0.000000 0.000000 0.000000 6.381967 0.138484 0.588958 -4.569546 13.283640 3.067428 -17.398039 16.360926 -15.715193 0.000000 0.000000 0.000000 3.611413 -1.558750 -0.179283 0.219237 3.170593 -0.363259 6.373591 -6.041296 3.740808 -69.926391 8.809593 -45.910749 148.913847 -85.212306 143.319034 0.000000 0.000000 0.000000 3.355340 -2.420252 0.649566 -0.551665 15.027593 -9.718696 -5.332045 -0.853112 -0.817818 -39.405564 14.676991 65.382881 -161.090408 71.886047 155.957971 0.000000 0.000000 0.000000 
1.007288 26.192987 0.578270 0.000000 0.000000 0.000000 0.201562 -27.450317 0.650940 -47.866700 1.529792 28.425765 65.544852 -2.841232 0.678787 -9.323546 4.971337 -22.481496 -2.409555 -2.155635 0.854612 0.000000 0.000000 0.000000 -0.953315 -27.032248 0.475667 -9.052634 -23.433969 -31.335067 51.425973 15.696311 -8.276690 -31.336700 -41.062947 42.845148 7.821273 18.972155 -25.192671 0.000000 0.000000 0.000000 0.028393 -22.868272 0.135075 9.814166 8.770345 -4.711547 1.368490 -1.818106 -0.602270 0.172853 -0.010364 0.068667 0.000000 0.000000 0.000000 6.260200 0.125597 0.599828 -3.955778 14.030100 1.946473 -17.030889 14.577053 -16.462400 0.000000 0.000000 0.000000 3.791043 -1.613932 -0.144885 0.202824 3.832799 -0.905933 6.246460 -6.051930 3.569681 -69.715399 9.301127 -46.305756 132.612316 -84.816879 126.637294 0.000000 0.000000 0.000000 3.493400 -2.456170 0.653459 -1.013428 14.902428 -9.446195 -4.031405 -0.814722 -0.874340 -41.101049 14.380830 68.244218 -160.982668 71.704316 155.744828 0.000000 0.000000 0.000000 
0.877762 26.231735 -0.122297 0.000000 0.000000 0.000000 0.048059 -28.861460 1.323207 -48.650450 2.279038 29.867287 63.917696 -2.823792 0.200948 -6.102082 3.297867 -22.536458 -3.087346 -2.332496 1.085755 0.000000 0.000000 0.000000 -0.975186 -28.792683 1.206881 -9.348686 -21.991993 -31.363013 52.437616 15.308370 -8.438989 -33.090709 -40.815762 43.414045 8.326043 18.260260 -24.144391 0.000000 0.000000 0.000000 -0.202332 -24.349792 0.864161 9.156173 7.819587 -4.289983 1.597337 -1.877494 -0.616071 0.136740 -0.031142 0.072250 0.000000 0.000000 0.000000 6.139881 0.129641 0.681537 -3.048860 14.741473 1.049611 -16.705980 13.193929 -17.370305 0.000000 0.000000 0.000000 3.911426 -1.639346 -0.103460 0.223025 4.590376 -1.438558 6.082034 -6.447234 3.354990 -68.917162 9.773973 -47.091590 122.453762 -84.020370 116.323791 0.000000 0.000000 0.000000 3.606777 -2.473553 0.681230 -1.427237 14.587365 -9.424569 -2.727110 -0.950367 -0.842579 -42.599238 14.151692 70.932730 -160.629370 71.896081 155.192717 0.000000 0.000000 0.000000 
